<svg xmlns="http://www.w3.org/2000/svg" width="245.062" height="231.719" viewBox="0 0 245.062 231.719"><defs><style>.a{fill:rgba(175,181,188,0.39);}</style></defs><path class="a" d="M392.717,21.682a2.444,2.444,0,1,0,2.444,2.444A2.444,2.444,0,0,0,392.717,21.682Z" transform="translate(-150.099 -8.339)"/><path class="a" d="M392.717,43.364a2.444,2.444,0,1,0,2.444,2.444A2.444,2.444,0,0,0,392.717,43.364Z" transform="translate(-150.099 -16.678)"/><path class="a" d="M392.717,65.045a2.444,2.444,0,1,0,2.444,2.444A2.444,2.444,0,0,0,392.717,65.045Z" transform="translate(-150.099 -25.016)"/><path class="a" d="M392.717,86.727a2.444,2.444,0,1,0,2.444,2.444A2.444,2.444,0,0,0,392.717,86.727Z" transform="translate(-150.099 -33.355)"/><path class="a" d="M392.717,108.409a2.444,2.444,0,1,0,2.444,2.444A2.444,2.444,0,0,0,392.717,108.409Z" transform="translate(-150.099 -41.694)"/><path class="a" d="M392.717,130.091a2.444,2.444,0,1,0,2.444,2.444A2.444,2.444,0,0,0,392.717,130.091Z" transform="translate(-150.099 -50.033)"/><path class="a" d="M392.717,151.773a2.444,2.444,0,1,0,2.444,2.444A2.444,2.444,0,0,0,392.717,151.773Z" transform="translate(-150.099 -58.372)"/><path class="a" d="M392.717,173.454a2.444,2.444,0,1,0,2.444,2.444A2.444,2.444,0,0,0,392.717,173.454Z" transform="translate(-150.099 -66.711)"/><path class="a" d="M392.717,195.136a2.444,2.444,0,1,0,2.444,2.444A2.444,2.444,0,0,0,392.717,195.136Z" transform="translate(-150.099 -75.049)"/><path class="a" d="M392.717,216.818a2.444,2.444,0,1,0,2.444,2.444A2.444,2.444,0,0,0,392.717,216.818Z" transform="translate(-150.099 -83.388)"/><path class="a" d="M392.717,238.5a2.444,2.444,0,1,0,2.444,2.444A2.444,2.444,0,0,0,392.717,238.5Z" transform="translate(-150.099 -91.727)"/><path class="a" d="M392.717,260.182a2.444,2.444,0,1,0,2.444,2.444A2.444,2.444,0,0,0,392.717,260.182Z" transform="translate(-150.099 -100.066)"/><path class="a" d="M392.717,281.863a2.444,2.444,0,1,0,2.444,2.444A2.444,2.444,0,0,0,392.717,281.863Z" transform="translate(-150.099 -108.405)"/><path class="a" d="M392.717,303.545a2.444,2.444,0,1,0,2.444,2.444A2.444,2.444,0,0,0,392.717,303.545Z" transform="translate(-150.099 -116.744)"/><path class="a" d="M392.717,325.227a2.444,2.444,0,1,0,2.444,2.444A2.444,2.444,0,0,0,392.717,325.227Z" transform="translate(-150.099 -125.083)"/><path class="a" d="M392.717,346.909a2.444,2.444,0,1,0,2.444,2.444A2.444,2.444,0,0,0,392.717,346.909Z" transform="translate(-150.099 -133.421)"/><path class="a" d="M392.717,368.591a2.444,2.444,0,1,0,2.444,2.444A2.444,2.444,0,0,0,392.717,368.591Z" transform="translate(-150.099 -141.76)"/><path class="a" d="M371.035,0a2.444,2.444,0,1,0,2.444,2.444A2.444,2.444,0,0,0,371.035,0Z" transform="translate(-141.76)"/><path class="a" d="M371.035,21.682a2.444,2.444,0,1,0,2.444,2.444A2.444,2.444,0,0,0,371.035,21.682Z" transform="translate(-141.76 -8.339)"/><path class="a" d="M392.717,4.888a2.444,2.444,0,1,0-2.444-2.444A2.444,2.444,0,0,0,392.717,4.888Z" transform="translate(-150.099)"/><path class="a" d="M371.035,43.364a2.444,2.444,0,1,0,2.444,2.444A2.444,2.444,0,0,0,371.035,43.364Z" transform="translate(-141.76 -16.678)"/><path class="a" d="M371.035,65.045a2.444,2.444,0,1,0,2.444,2.444A2.444,2.444,0,0,0,371.035,65.045Z" transform="translate(-141.76 -25.016)"/><path class="a" d="M371.035,86.727a2.444,2.444,0,1,0,2.444,2.444A2.444,2.444,0,0,0,371.035,86.727Z" transform="translate(-141.76 -33.355)"/><path class="a" d="M371.035,108.409a2.444,2.444,0,1,0,2.444,2.444A2.444,2.444,0,0,0,371.035,108.409Z" transform="translate(-141.76 -41.694)"/><path class="a" d="M371.035,130.091a2.444,2.444,0,1,0,2.444,2.444A2.444,2.444,0,0,0,371.035,130.091Z" transform="translate(-141.76 -50.033)"/><path class="a" d="M371.035,151.773a2.444,2.444,0,1,0,2.444,2.444A2.444,2.444,0,0,0,371.035,151.773Z" transform="translate(-141.76 -58.372)"/><path class="a" d="M371.035,173.454a2.444,2.444,0,1,0,2.444,2.444A2.444,2.444,0,0,0,371.035,173.454Z" transform="translate(-141.76 -66.711)"/><path class="a" d="M371.035,195.136a2.444,2.444,0,1,0,2.444,2.444A2.444,2.444,0,0,0,371.035,195.136Z" transform="translate(-141.76 -75.049)"/><path class="a" d="M371.035,216.818a2.444,2.444,0,1,0,2.444,2.444A2.444,2.444,0,0,0,371.035,216.818Z" transform="translate(-141.76 -83.388)"/><path class="a" d="M371.035,238.5a2.444,2.444,0,1,0,2.444,2.444A2.444,2.444,0,0,0,371.035,238.5Z" transform="translate(-141.76 -91.727)"/><path class="a" d="M371.035,260.182a2.444,2.444,0,1,0,2.444,2.444A2.444,2.444,0,0,0,371.035,260.182Z" transform="translate(-141.76 -100.066)"/><path class="a" d="M371.035,281.863a2.444,2.444,0,1,0,2.444,2.444A2.444,2.444,0,0,0,371.035,281.863Z" transform="translate(-141.76 -108.405)"/><path class="a" d="M371.035,303.545a2.444,2.444,0,1,0,2.444,2.444A2.444,2.444,0,0,0,371.035,303.545Z" transform="translate(-141.76 -116.744)"/><path class="a" d="M371.035,325.227a2.444,2.444,0,1,0,2.444,2.444A2.444,2.444,0,0,0,371.035,325.227Z" transform="translate(-141.76 -125.083)"/><path class="a" d="M371.035,346.909a2.444,2.444,0,1,0,2.444,2.444A2.444,2.444,0,0,0,371.035,346.909Z" transform="translate(-141.76 -133.421)"/><path class="a" d="M371.035,368.591a2.444,2.444,0,1,0,2.444,2.444A2.444,2.444,0,0,0,371.035,368.591Z" transform="translate(-141.76 -141.76)"/><path class="a" d="M349.353,0A2.444,2.444,0,1,0,351.8,2.444,2.444,2.444,0,0,0,349.353,0Z" transform="translate(-133.421)"/><path class="a" d="M349.353,21.682a2.444,2.444,0,1,0,2.444,2.444A2.444,2.444,0,0,0,349.353,21.682Z" transform="translate(-133.421 -8.339)"/><path class="a" d="M349.353,43.364a2.444,2.444,0,1,0,2.444,2.444A2.444,2.444,0,0,0,349.353,43.364Z" transform="translate(-133.421 -16.678)"/><path class="a" d="M349.353,65.045a2.444,2.444,0,1,0,2.444,2.444A2.444,2.444,0,0,0,349.353,65.045Z" transform="translate(-133.421 -25.016)"/><path class="a" d="M349.353,86.727a2.444,2.444,0,1,0,2.444,2.444A2.444,2.444,0,0,0,349.353,86.727Z" transform="translate(-133.421 -33.355)"/><path class="a" d="M349.353,108.409a2.444,2.444,0,1,0,2.444,2.444A2.444,2.444,0,0,0,349.353,108.409Z" transform="translate(-133.421 -41.694)"/><path class="a" d="M349.353,130.091a2.444,2.444,0,1,0,2.444,2.444A2.444,2.444,0,0,0,349.353,130.091Z" transform="translate(-133.421 -50.033)"/><path class="a" d="M349.353,151.773a2.444,2.444,0,1,0,2.444,2.444A2.444,2.444,0,0,0,349.353,151.773Z" transform="translate(-133.421 -58.372)"/><path class="a" d="M349.353,173.454A2.444,2.444,0,1,0,351.8,175.9,2.444,2.444,0,0,0,349.353,173.454Z" transform="translate(-133.421 -66.711)"/><path class="a" d="M349.353,195.136a2.444,2.444,0,1,0,2.444,2.444A2.444,2.444,0,0,0,349.353,195.136Z" transform="translate(-133.421 -75.049)"/><path class="a" d="M349.353,216.818a2.444,2.444,0,1,0,2.444,2.444A2.444,2.444,0,0,0,349.353,216.818Z" transform="translate(-133.421 -83.388)"/><path class="a" d="M349.353,238.5a2.444,2.444,0,1,0,2.444,2.444A2.444,2.444,0,0,0,349.353,238.5Z" transform="translate(-133.421 -91.727)"/><path class="a" d="M349.353,260.182a2.444,2.444,0,1,0,2.444,2.444A2.444,2.444,0,0,0,349.353,260.182Z" transform="translate(-133.421 -100.066)"/><path class="a" d="M349.353,281.863a2.444,2.444,0,1,0,2.444,2.444A2.444,2.444,0,0,0,349.353,281.863Z" transform="translate(-133.421 -108.405)"/><path class="a" d="M349.353,303.545a2.444,2.444,0,1,0,2.444,2.444A2.444,2.444,0,0,0,349.353,303.545Z" transform="translate(-133.421 -116.744)"/><path class="a" d="M349.353,325.227a2.444,2.444,0,1,0,2.444,2.444A2.444,2.444,0,0,0,349.353,325.227Z" transform="translate(-133.421 -125.083)"/><path class="a" d="M349.353,346.909a2.444,2.444,0,1,0,2.444,2.444A2.444,2.444,0,0,0,349.353,346.909Z" transform="translate(-133.421 -133.421)"/><path class="a" d="M349.353,368.591a2.444,2.444,0,1,0,2.444,2.444A2.444,2.444,0,0,0,349.353,368.591Z" transform="translate(-133.421 -141.76)"/><path class="a" d="M327.672,0a2.444,2.444,0,1,0,2.444,2.444A2.444,2.444,0,0,0,327.672,0Z" transform="translate(-125.083)"/><path class="a" d="M327.672,21.682a2.444,2.444,0,1,0,2.444,2.444A2.444,2.444,0,0,0,327.672,21.682Z" transform="translate(-125.083 -8.339)"/><path class="a" d="M327.672,43.364a2.444,2.444,0,1,0,2.444,2.444A2.444,2.444,0,0,0,327.672,43.364Z" transform="translate(-125.083 -16.678)"/><path class="a" d="M327.672,65.045a2.444,2.444,0,1,0,2.444,2.444A2.444,2.444,0,0,0,327.672,65.045Z" transform="translate(-125.083 -25.016)"/><path class="a" d="M327.672,86.727a2.444,2.444,0,1,0,2.444,2.444A2.444,2.444,0,0,0,327.672,86.727Z" transform="translate(-125.083 -33.355)"/><path class="a" d="M327.672,108.409a2.444,2.444,0,1,0,2.444,2.444A2.444,2.444,0,0,0,327.672,108.409Z" transform="translate(-125.083 -41.694)"/><path class="a" d="M327.672,130.091a2.444,2.444,0,1,0,2.444,2.444A2.444,2.444,0,0,0,327.672,130.091Z" transform="translate(-125.083 -50.033)"/><path class="a" d="M327.672,151.773a2.444,2.444,0,1,0,2.444,2.444A2.444,2.444,0,0,0,327.672,151.773Z" transform="translate(-125.083 -58.372)"/><path class="a" d="M327.672,173.454a2.444,2.444,0,1,0,2.444,2.444A2.444,2.444,0,0,0,327.672,173.454Z" transform="translate(-125.083 -66.711)"/><path class="a" d="M327.672,195.136a2.444,2.444,0,1,0,2.444,2.444A2.444,2.444,0,0,0,327.672,195.136Z" transform="translate(-125.083 -75.049)"/><path class="a" d="M327.672,216.818a2.444,2.444,0,1,0,2.444,2.444A2.444,2.444,0,0,0,327.672,216.818Z" transform="translate(-125.083 -83.388)"/><path class="a" d="M327.672,238.5a2.444,2.444,0,1,0,2.444,2.444A2.444,2.444,0,0,0,327.672,238.5Z" transform="translate(-125.083 -91.727)"/><path class="a" d="M327.672,260.182a2.444,2.444,0,1,0,2.444,2.444A2.444,2.444,0,0,0,327.672,260.182Z" transform="translate(-125.083 -100.066)"/><path class="a" d="M327.672,281.863a2.444,2.444,0,1,0,2.444,2.444A2.444,2.444,0,0,0,327.672,281.863Z" transform="translate(-125.083 -108.405)"/><path class="a" d="M327.672,303.545a2.444,2.444,0,1,0,2.444,2.444A2.444,2.444,0,0,0,327.672,303.545Z" transform="translate(-125.083 -116.744)"/><path class="a" d="M327.672,325.227a2.444,2.444,0,1,0,2.444,2.444A2.444,2.444,0,0,0,327.672,325.227Z" transform="translate(-125.083 -125.083)"/><path class="a" d="M327.672,346.909a2.444,2.444,0,1,0,2.444,2.444A2.444,2.444,0,0,0,327.672,346.909Z" transform="translate(-125.083 -133.421)"/><path class="a" d="M327.672,368.591a2.444,2.444,0,1,0,2.444,2.444A2.444,2.444,0,0,0,327.672,368.591Z" transform="translate(-125.083 -141.76)"/><path class="a" d="M305.99,0a2.444,2.444,0,1,0,2.444,2.444A2.444,2.444,0,0,0,305.99,0Z" transform="translate(-116.744)"/><path class="a" d="M305.99,21.682a2.444,2.444,0,1,0,2.444,2.444A2.444,2.444,0,0,0,305.99,21.682Z" transform="translate(-116.744 -8.339)"/><path class="a" d="M305.99,43.364a2.444,2.444,0,1,0,2.444,2.444A2.444,2.444,0,0,0,305.99,43.364Z" transform="translate(-116.744 -16.678)"/><path class="a" d="M305.99,65.045a2.444,2.444,0,1,0,2.444,2.444A2.444,2.444,0,0,0,305.99,65.045Z" transform="translate(-116.744 -25.016)"/><path class="a" d="M305.99,86.727a2.444,2.444,0,1,0,2.444,2.444A2.444,2.444,0,0,0,305.99,86.727Z" transform="translate(-116.744 -33.355)"/><path class="a" d="M305.99,108.409a2.444,2.444,0,1,0,2.444,2.444A2.444,2.444,0,0,0,305.99,108.409Z" transform="translate(-116.744 -41.694)"/><path class="a" d="M305.99,130.091a2.444,2.444,0,1,0,2.444,2.444A2.444,2.444,0,0,0,305.99,130.091Z" transform="translate(-116.744 -50.033)"/><path class="a" d="M305.99,151.773a2.444,2.444,0,1,0,2.444,2.444A2.444,2.444,0,0,0,305.99,151.773Z" transform="translate(-116.744 -58.372)"/><path class="a" d="M305.99,173.454a2.444,2.444,0,1,0,2.444,2.444A2.444,2.444,0,0,0,305.99,173.454Z" transform="translate(-116.744 -66.711)"/><path class="a" d="M305.99,195.136a2.444,2.444,0,1,0,2.444,2.444A2.444,2.444,0,0,0,305.99,195.136Z" transform="translate(-116.744 -75.049)"/><path class="a" d="M305.99,216.818a2.444,2.444,0,1,0,2.444,2.444A2.444,2.444,0,0,0,305.99,216.818Z" transform="translate(-116.744 -83.388)"/><path class="a" d="M305.99,238.5a2.444,2.444,0,1,0,2.444,2.444A2.444,2.444,0,0,0,305.99,238.5Z" transform="translate(-116.744 -91.727)"/><path class="a" d="M305.99,260.182a2.444,2.444,0,1,0,2.444,2.444A2.444,2.444,0,0,0,305.99,260.182Z" transform="translate(-116.744 -100.066)"/><path class="a" d="M305.99,281.863a2.444,2.444,0,1,0,2.444,2.444A2.444,2.444,0,0,0,305.99,281.863Z" transform="translate(-116.744 -108.405)"/><path class="a" d="M305.99,303.545a2.444,2.444,0,1,0,2.444,2.444A2.444,2.444,0,0,0,305.99,303.545Z" transform="translate(-116.744 -116.744)"/><path class="a" d="M305.99,325.227a2.444,2.444,0,1,0,2.444,2.444A2.444,2.444,0,0,0,305.99,325.227Z" transform="translate(-116.744 -125.083)"/><path class="a" d="M305.99,346.909a2.444,2.444,0,1,0,2.444,2.444A2.444,2.444,0,0,0,305.99,346.909Z" transform="translate(-116.744 -133.421)"/><path class="a" d="M305.99,368.591a2.444,2.444,0,1,0,2.444,2.444A2.444,2.444,0,0,0,305.99,368.591Z" transform="translate(-116.744 -141.76)"/><path class="a" d="M284.307,0a2.444,2.444,0,1,0,2.444,2.444A2.444,2.444,0,0,0,284.307,0Z" transform="translate(-108.405)"/><path class="a" d="M284.307,21.682a2.444,2.444,0,1,0,2.444,2.444A2.444,2.444,0,0,0,284.307,21.682Z" transform="translate(-108.405 -8.339)"/><path class="a" d="M284.307,43.364a2.444,2.444,0,1,0,2.444,2.444A2.444,2.444,0,0,0,284.307,43.364Z" transform="translate(-108.405 -16.678)"/><path class="a" d="M284.307,65.045a2.444,2.444,0,1,0,2.444,2.444A2.444,2.444,0,0,0,284.307,65.045Z" transform="translate(-108.405 -25.016)"/><path class="a" d="M284.307,86.727a2.444,2.444,0,1,0,2.444,2.444A2.444,2.444,0,0,0,284.307,86.727Z" transform="translate(-108.405 -33.355)"/><path class="a" d="M284.307,108.409a2.444,2.444,0,1,0,2.444,2.444A2.444,2.444,0,0,0,284.307,108.409Z" transform="translate(-108.405 -41.694)"/><path class="a" d="M284.307,130.091a2.444,2.444,0,1,0,2.444,2.444A2.444,2.444,0,0,0,284.307,130.091Z" transform="translate(-108.405 -50.033)"/><path class="a" d="M284.307,151.773a2.444,2.444,0,1,0,2.444,2.444A2.444,2.444,0,0,0,284.307,151.773Z" transform="translate(-108.405 -58.372)"/><path class="a" d="M284.307,173.454a2.444,2.444,0,1,0,2.444,2.444A2.444,2.444,0,0,0,284.307,173.454Z" transform="translate(-108.405 -66.711)"/><path class="a" d="M284.307,195.136a2.444,2.444,0,1,0,2.444,2.444A2.444,2.444,0,0,0,284.307,195.136Z" transform="translate(-108.405 -75.049)"/><path class="a" d="M284.307,216.818a2.444,2.444,0,1,0,2.444,2.444A2.444,2.444,0,0,0,284.307,216.818Z" transform="translate(-108.405 -83.388)"/><path class="a" d="M284.307,238.5a2.444,2.444,0,1,0,2.444,2.444A2.444,2.444,0,0,0,284.307,238.5Z" transform="translate(-108.405 -91.727)"/><path class="a" d="M284.307,260.182a2.444,2.444,0,1,0,2.444,2.444A2.444,2.444,0,0,0,284.307,260.182Z" transform="translate(-108.405 -100.066)"/><path class="a" d="M284.307,281.863a2.444,2.444,0,1,0,2.444,2.444A2.444,2.444,0,0,0,284.307,281.863Z" transform="translate(-108.405 -108.405)"/><path class="a" d="M284.307,303.545a2.444,2.444,0,1,0,2.444,2.444A2.444,2.444,0,0,0,284.307,303.545Z" transform="translate(-108.405 -116.744)"/><path class="a" d="M284.307,325.227a2.444,2.444,0,1,0,2.444,2.444A2.444,2.444,0,0,0,284.307,325.227Z" transform="translate(-108.405 -125.083)"/><path class="a" d="M284.307,346.909a2.444,2.444,0,1,0,2.444,2.444A2.444,2.444,0,0,0,284.307,346.909Z" transform="translate(-108.405 -133.421)"/><path class="a" d="M284.307,368.591a2.444,2.444,0,1,0,2.444,2.444A2.444,2.444,0,0,0,284.307,368.591Z" transform="translate(-108.405 -141.76)"/><path class="a" d="M262.626,0a2.444,2.444,0,1,0,2.444,2.444A2.444,2.444,0,0,0,262.626,0Z" transform="translate(-100.066)"/><path class="a" d="M262.626,21.682a2.444,2.444,0,1,0,2.444,2.444A2.444,2.444,0,0,0,262.626,21.682Z" transform="translate(-100.066 -8.339)"/><path class="a" d="M262.626,43.364a2.444,2.444,0,1,0,2.444,2.444A2.444,2.444,0,0,0,262.626,43.364Z" transform="translate(-100.066 -16.678)"/><path class="a" d="M262.626,65.045a2.444,2.444,0,1,0,2.444,2.444A2.444,2.444,0,0,0,262.626,65.045Z" transform="translate(-100.066 -25.016)"/><path class="a" d="M262.626,86.727a2.444,2.444,0,1,0,2.444,2.444A2.444,2.444,0,0,0,262.626,86.727Z" transform="translate(-100.066 -33.355)"/><path class="a" d="M262.626,108.409a2.444,2.444,0,1,0,2.444,2.444A2.444,2.444,0,0,0,262.626,108.409Z" transform="translate(-100.066 -41.694)"/><path class="a" d="M262.626,130.091a2.444,2.444,0,1,0,2.444,2.444A2.444,2.444,0,0,0,262.626,130.091Z" transform="translate(-100.066 -50.033)"/><path class="a" d="M262.626,151.773a2.444,2.444,0,1,0,2.444,2.444A2.444,2.444,0,0,0,262.626,151.773Z" transform="translate(-100.066 -58.372)"/><path class="a" d="M262.626,173.454a2.444,2.444,0,1,0,2.444,2.444A2.444,2.444,0,0,0,262.626,173.454Z" transform="translate(-100.066 -66.711)"/><path class="a" d="M262.626,195.136a2.444,2.444,0,1,0,2.444,2.444A2.444,2.444,0,0,0,262.626,195.136Z" transform="translate(-100.066 -75.049)"/><path class="a" d="M262.626,216.818a2.444,2.444,0,1,0,2.444,2.444A2.444,2.444,0,0,0,262.626,216.818Z" transform="translate(-100.066 -83.388)"/><path class="a" d="M262.626,238.5a2.444,2.444,0,1,0,2.444,2.444A2.444,2.444,0,0,0,262.626,238.5Z" transform="translate(-100.066 -91.727)"/><path class="a" d="M262.626,260.182a2.444,2.444,0,1,0,2.444,2.444A2.444,2.444,0,0,0,262.626,260.182Z" transform="translate(-100.066 -100.066)"/><path class="a" d="M262.626,281.863a2.444,2.444,0,1,0,2.444,2.444A2.444,2.444,0,0,0,262.626,281.863Z" transform="translate(-100.066 -108.405)"/><path class="a" d="M262.626,303.545a2.444,2.444,0,1,0,2.444,2.444A2.444,2.444,0,0,0,262.626,303.545Z" transform="translate(-100.066 -116.744)"/><path class="a" d="M262.626,325.227a2.444,2.444,0,1,0,2.444,2.444A2.444,2.444,0,0,0,262.626,325.227Z" transform="translate(-100.066 -125.083)"/><path class="a" d="M262.626,346.909a2.444,2.444,0,1,0,2.444,2.444A2.444,2.444,0,0,0,262.626,346.909Z" transform="translate(-100.066 -133.421)"/><path class="a" d="M262.626,368.591a2.444,2.444,0,1,0,2.444,2.444A2.444,2.444,0,0,0,262.626,368.591Z" transform="translate(-100.066 -141.76)"/><path class="a" d="M240.944,0a2.444,2.444,0,1,0,2.444,2.444A2.444,2.444,0,0,0,240.944,0Z" transform="translate(-91.727)"/><path class="a" d="M240.944,21.682a2.444,2.444,0,1,0,2.444,2.444A2.444,2.444,0,0,0,240.944,21.682Z" transform="translate(-91.727 -8.339)"/><path class="a" d="M240.944,43.364a2.444,2.444,0,1,0,2.444,2.444A2.444,2.444,0,0,0,240.944,43.364Z" transform="translate(-91.727 -16.678)"/><path class="a" d="M240.944,65.045a2.444,2.444,0,1,0,2.444,2.444A2.444,2.444,0,0,0,240.944,65.045Z" transform="translate(-91.727 -25.016)"/><path class="a" d="M240.944,86.727a2.444,2.444,0,1,0,2.444,2.444A2.444,2.444,0,0,0,240.944,86.727Z" transform="translate(-91.727 -33.355)"/><path class="a" d="M240.944,108.409a2.444,2.444,0,1,0,2.444,2.444A2.444,2.444,0,0,0,240.944,108.409Z" transform="translate(-91.727 -41.694)"/><path class="a" d="M240.944,130.091a2.444,2.444,0,1,0,2.444,2.444A2.444,2.444,0,0,0,240.944,130.091Z" transform="translate(-91.727 -50.033)"/><path class="a" d="M240.944,151.773a2.444,2.444,0,1,0,2.444,2.444A2.444,2.444,0,0,0,240.944,151.773Z" transform="translate(-91.727 -58.372)"/><path class="a" d="M240.944,173.454a2.444,2.444,0,1,0,2.444,2.444A2.444,2.444,0,0,0,240.944,173.454Z" transform="translate(-91.727 -66.711)"/><path class="a" d="M240.944,195.136a2.444,2.444,0,1,0,2.444,2.444A2.444,2.444,0,0,0,240.944,195.136Z" transform="translate(-91.727 -75.049)"/><path class="a" d="M240.944,216.818a2.444,2.444,0,1,0,2.444,2.444A2.444,2.444,0,0,0,240.944,216.818Z" transform="translate(-91.727 -83.388)"/><path class="a" d="M240.944,238.5a2.444,2.444,0,1,0,2.444,2.444A2.444,2.444,0,0,0,240.944,238.5Z" transform="translate(-91.727 -91.727)"/><path class="a" d="M240.944,260.182a2.444,2.444,0,1,0,2.444,2.444A2.444,2.444,0,0,0,240.944,260.182Z" transform="translate(-91.727 -100.066)"/><path class="a" d="M240.944,281.863a2.444,2.444,0,1,0,2.444,2.444A2.444,2.444,0,0,0,240.944,281.863Z" transform="translate(-91.727 -108.405)"/><path class="a" d="M240.944,303.545a2.444,2.444,0,1,0,2.444,2.444A2.444,2.444,0,0,0,240.944,303.545Z" transform="translate(-91.727 -116.744)"/><path class="a" d="M240.944,325.227a2.444,2.444,0,1,0,2.444,2.444A2.444,2.444,0,0,0,240.944,325.227Z" transform="translate(-91.727 -125.083)"/><path class="a" d="M240.944,346.909a2.444,2.444,0,1,0,2.444,2.444A2.444,2.444,0,0,0,240.944,346.909Z" transform="translate(-91.727 -133.421)"/><path class="a" d="M240.944,368.591a2.444,2.444,0,1,0,2.444,2.444A2.444,2.444,0,0,0,240.944,368.591Z" transform="translate(-91.727 -141.76)"/><path class="a" d="M219.263,0a2.444,2.444,0,1,0,2.444,2.444A2.444,2.444,0,0,0,219.263,0Z" transform="translate(-83.389)"/><path class="a" d="M219.263,21.682a2.444,2.444,0,1,0,2.444,2.444A2.444,2.444,0,0,0,219.263,21.682Z" transform="translate(-83.389 -8.339)"/><path class="a" d="M219.263,43.364a2.444,2.444,0,1,0,2.444,2.444A2.444,2.444,0,0,0,219.263,43.364Z" transform="translate(-83.389 -16.678)"/><path class="a" d="M219.263,65.045a2.444,2.444,0,1,0,2.444,2.444A2.444,2.444,0,0,0,219.263,65.045Z" transform="translate(-83.389 -25.016)"/><path class="a" d="M219.263,86.727a2.444,2.444,0,1,0,2.444,2.444A2.444,2.444,0,0,0,219.263,86.727Z" transform="translate(-83.389 -33.355)"/><path class="a" d="M219.263,108.409a2.444,2.444,0,1,0,2.444,2.444A2.444,2.444,0,0,0,219.263,108.409Z" transform="translate(-83.389 -41.694)"/><path class="a" d="M219.263,130.091a2.444,2.444,0,1,0,2.444,2.444A2.444,2.444,0,0,0,219.263,130.091Z" transform="translate(-83.389 -50.033)"/><path class="a" d="M219.263,151.773a2.444,2.444,0,1,0,2.444,2.444A2.444,2.444,0,0,0,219.263,151.773Z" transform="translate(-83.389 -58.372)"/><path class="a" d="M219.263,173.454a2.444,2.444,0,1,0,2.444,2.444A2.444,2.444,0,0,0,219.263,173.454Z" transform="translate(-83.389 -66.711)"/><path class="a" d="M219.263,195.136a2.444,2.444,0,1,0,2.444,2.444A2.444,2.444,0,0,0,219.263,195.136Z" transform="translate(-83.389 -75.049)"/><path class="a" d="M219.263,216.818a2.444,2.444,0,1,0,2.444,2.444A2.444,2.444,0,0,0,219.263,216.818Z" transform="translate(-83.389 -83.388)"/><path class="a" d="M219.263,238.5a2.444,2.444,0,1,0,2.444,2.444A2.444,2.444,0,0,0,219.263,238.5Z" transform="translate(-83.389 -91.727)"/><path class="a" d="M219.263,260.182a2.444,2.444,0,1,0,2.444,2.444A2.444,2.444,0,0,0,219.263,260.182Z" transform="translate(-83.389 -100.066)"/><path class="a" d="M219.263,281.863a2.444,2.444,0,1,0,2.444,2.444A2.444,2.444,0,0,0,219.263,281.863Z" transform="translate(-83.389 -108.405)"/><path class="a" d="M219.263,303.545a2.444,2.444,0,1,0,2.444,2.444A2.444,2.444,0,0,0,219.263,303.545Z" transform="translate(-83.389 -116.744)"/><path class="a" d="M219.263,325.227a2.444,2.444,0,1,0,2.444,2.444A2.444,2.444,0,0,0,219.263,325.227Z" transform="translate(-83.389 -125.083)"/><path class="a" d="M219.263,346.909a2.444,2.444,0,1,0,2.444,2.444A2.444,2.444,0,0,0,219.263,346.909Z" transform="translate(-83.389 -133.421)"/><path class="a" d="M219.263,368.591a2.444,2.444,0,1,0,2.444,2.444A2.444,2.444,0,0,0,219.263,368.591Z" transform="translate(-83.389 -141.76)"/><path class="a" d="M197.581,0a2.444,2.444,0,1,0,2.444,2.444A2.444,2.444,0,0,0,197.581,0Z" transform="translate(-75.05)"/><path class="a" d="M197.581,21.682a2.444,2.444,0,1,0,2.444,2.444A2.444,2.444,0,0,0,197.581,21.682Z" transform="translate(-75.05 -8.339)"/><path class="a" d="M197.581,43.364a2.444,2.444,0,1,0,2.444,2.444A2.444,2.444,0,0,0,197.581,43.364Z" transform="translate(-75.05 -16.678)"/><path class="a" d="M197.581,65.045a2.444,2.444,0,1,0,2.444,2.444A2.444,2.444,0,0,0,197.581,65.045Z" transform="translate(-75.05 -25.016)"/><path class="a" d="M197.581,86.727a2.444,2.444,0,1,0,2.444,2.444A2.444,2.444,0,0,0,197.581,86.727Z" transform="translate(-75.05 -33.355)"/><path class="a" d="M197.581,108.409a2.444,2.444,0,1,0,2.444,2.444A2.444,2.444,0,0,0,197.581,108.409Z" transform="translate(-75.05 -41.694)"/><path class="a" d="M197.581,130.091a2.444,2.444,0,1,0,2.444,2.444A2.444,2.444,0,0,0,197.581,130.091Z" transform="translate(-75.05 -50.033)"/><path class="a" d="M197.581,151.773a2.444,2.444,0,1,0,2.444,2.444A2.444,2.444,0,0,0,197.581,151.773Z" transform="translate(-75.05 -58.372)"/><path class="a" d="M197.581,173.454a2.444,2.444,0,1,0,2.444,2.444A2.444,2.444,0,0,0,197.581,173.454Z" transform="translate(-75.05 -66.711)"/><path class="a" d="M197.581,195.136a2.444,2.444,0,1,0,2.444,2.444A2.444,2.444,0,0,0,197.581,195.136Z" transform="translate(-75.05 -75.049)"/><path class="a" d="M197.581,216.818a2.444,2.444,0,1,0,2.444,2.444A2.444,2.444,0,0,0,197.581,216.818Z" transform="translate(-75.05 -83.388)"/><path class="a" d="M197.581,238.5a2.444,2.444,0,1,0,2.444,2.444A2.444,2.444,0,0,0,197.581,238.5Z" transform="translate(-75.05 -91.727)"/><path class="a" d="M197.581,260.182a2.444,2.444,0,1,0,2.444,2.444A2.444,2.444,0,0,0,197.581,260.182Z" transform="translate(-75.05 -100.066)"/><path class="a" d="M197.581,281.863a2.444,2.444,0,1,0,2.444,2.444A2.444,2.444,0,0,0,197.581,281.863Z" transform="translate(-75.05 -108.405)"/><path class="a" d="M197.581,303.545a2.444,2.444,0,1,0,2.444,2.444A2.444,2.444,0,0,0,197.581,303.545Z" transform="translate(-75.05 -116.744)"/><path class="a" d="M197.581,325.227a2.444,2.444,0,1,0,2.444,2.444A2.444,2.444,0,0,0,197.581,325.227Z" transform="translate(-75.05 -125.083)"/><path class="a" d="M197.581,346.909a2.444,2.444,0,1,0,2.444,2.444A2.444,2.444,0,0,0,197.581,346.909Z" transform="translate(-75.05 -133.421)"/><path class="a" d="M197.581,368.591a2.444,2.444,0,1,0,2.444,2.444A2.444,2.444,0,0,0,197.581,368.591Z" transform="translate(-75.05 -141.76)"/><path class="a" d="M175.9,0a2.444,2.444,0,1,0,2.444,2.444A2.444,2.444,0,0,0,175.9,0Z" transform="translate(-66.711)"/><path class="a" d="M175.9,21.682a2.444,2.444,0,1,0,2.444,2.444A2.444,2.444,0,0,0,175.9,21.682Z" transform="translate(-66.711 -8.339)"/><path class="a" d="M175.9,43.364a2.444,2.444,0,1,0,2.444,2.444A2.444,2.444,0,0,0,175.9,43.364Z" transform="translate(-66.711 -16.678)"/><path class="a" d="M175.9,65.045a2.444,2.444,0,1,0,2.444,2.444A2.444,2.444,0,0,0,175.9,65.045Z" transform="translate(-66.711 -25.016)"/><path class="a" d="M175.9,86.727a2.444,2.444,0,1,0,2.444,2.444A2.444,2.444,0,0,0,175.9,86.727Z" transform="translate(-66.711 -33.355)"/><path class="a" d="M175.9,108.409a2.444,2.444,0,1,0,2.444,2.444A2.444,2.444,0,0,0,175.9,108.409Z" transform="translate(-66.711 -41.694)"/><path class="a" d="M175.9,130.091a2.444,2.444,0,1,0,2.444,2.444A2.444,2.444,0,0,0,175.9,130.091Z" transform="translate(-66.711 -50.033)"/><path class="a" d="M175.9,151.773a2.444,2.444,0,1,0,2.444,2.444A2.444,2.444,0,0,0,175.9,151.773Z" transform="translate(-66.711 -58.372)"/><path class="a" d="M175.9,173.454a2.444,2.444,0,1,0,2.444,2.444A2.444,2.444,0,0,0,175.9,173.454Z" transform="translate(-66.711 -66.711)"/><path class="a" d="M175.9,195.136a2.444,2.444,0,1,0,2.444,2.444A2.444,2.444,0,0,0,175.9,195.136Z" transform="translate(-66.711 -75.049)"/><path class="a" d="M175.9,216.818a2.444,2.444,0,1,0,2.444,2.444A2.444,2.444,0,0,0,175.9,216.818Z" transform="translate(-66.711 -83.388)"/><path class="a" d="M175.9,238.5a2.444,2.444,0,1,0,2.444,2.444A2.444,2.444,0,0,0,175.9,238.5Z" transform="translate(-66.711 -91.727)"/><path class="a" d="M175.9,260.182a2.444,2.444,0,1,0,2.444,2.444A2.444,2.444,0,0,0,175.9,260.182Z" transform="translate(-66.711 -100.066)"/><path class="a" d="M175.9,281.863a2.444,2.444,0,1,0,2.444,2.444A2.444,2.444,0,0,0,175.9,281.863Z" transform="translate(-66.711 -108.405)"/><path class="a" d="M175.9,303.545a2.444,2.444,0,1,0,2.444,2.444A2.444,2.444,0,0,0,175.9,303.545Z" transform="translate(-66.711 -116.744)"/><path class="a" d="M175.9,325.227a2.444,2.444,0,1,0,2.444,2.444A2.444,2.444,0,0,0,175.9,325.227Z" transform="translate(-66.711 -125.083)"/><path class="a" d="M175.9,346.909a2.444,2.444,0,1,0,2.444,2.444A2.444,2.444,0,0,0,175.9,346.909Z" transform="translate(-66.711 -133.421)"/><path class="a" d="M175.9,368.591a2.444,2.444,0,1,0,2.444,2.444A2.444,2.444,0,0,0,175.9,368.591Z" transform="translate(-66.711 -141.76)"/><path class="a" d="M154.217,0a2.444,2.444,0,1,0,2.444,2.444A2.444,2.444,0,0,0,154.217,0Z" transform="translate(-58.372)"/><path class="a" d="M154.217,21.682a2.444,2.444,0,1,0,2.444,2.444A2.444,2.444,0,0,0,154.217,21.682Z" transform="translate(-58.372 -8.339)"/><path class="a" d="M154.217,43.364a2.444,2.444,0,1,0,2.444,2.444A2.444,2.444,0,0,0,154.217,43.364Z" transform="translate(-58.372 -16.678)"/><path class="a" d="M154.217,65.045a2.444,2.444,0,1,0,2.444,2.444A2.444,2.444,0,0,0,154.217,65.045Z" transform="translate(-58.372 -25.016)"/><path class="a" d="M154.217,86.727a2.444,2.444,0,1,0,2.444,2.444A2.444,2.444,0,0,0,154.217,86.727Z" transform="translate(-58.372 -33.355)"/><path class="a" d="M154.217,108.409a2.444,2.444,0,1,0,2.444,2.444A2.444,2.444,0,0,0,154.217,108.409Z" transform="translate(-58.372 -41.694)"/><path class="a" d="M154.217,130.091a2.444,2.444,0,1,0,2.444,2.444A2.444,2.444,0,0,0,154.217,130.091Z" transform="translate(-58.372 -50.033)"/><path class="a" d="M154.217,151.773a2.444,2.444,0,1,0,2.444,2.444A2.444,2.444,0,0,0,154.217,151.773Z" transform="translate(-58.372 -58.372)"/><path class="a" d="M154.217,173.454a2.444,2.444,0,1,0,2.444,2.444A2.444,2.444,0,0,0,154.217,173.454Z" transform="translate(-58.372 -66.711)"/><path class="a" d="M154.217,195.136a2.444,2.444,0,1,0,2.444,2.444A2.444,2.444,0,0,0,154.217,195.136Z" transform="translate(-58.372 -75.049)"/><path class="a" d="M154.217,216.818a2.444,2.444,0,1,0,2.444,2.444A2.444,2.444,0,0,0,154.217,216.818Z" transform="translate(-58.372 -83.388)"/><path class="a" d="M154.217,238.5a2.444,2.444,0,1,0,2.444,2.444A2.444,2.444,0,0,0,154.217,238.5Z" transform="translate(-58.372 -91.727)"/><path class="a" d="M154.217,260.182a2.444,2.444,0,1,0,2.444,2.444A2.444,2.444,0,0,0,154.217,260.182Z" transform="translate(-58.372 -100.066)"/><path class="a" d="M154.217,281.863a2.444,2.444,0,1,0,2.444,2.444A2.444,2.444,0,0,0,154.217,281.863Z" transform="translate(-58.372 -108.405)"/><path class="a" d="M154.217,303.545a2.444,2.444,0,1,0,2.444,2.444A2.444,2.444,0,0,0,154.217,303.545Z" transform="translate(-58.372 -116.744)"/><path class="a" d="M154.217,325.227a2.444,2.444,0,1,0,2.444,2.444A2.444,2.444,0,0,0,154.217,325.227Z" transform="translate(-58.372 -125.083)"/><path class="a" d="M154.217,346.909a2.444,2.444,0,1,0,2.444,2.444A2.444,2.444,0,0,0,154.217,346.909Z" transform="translate(-58.372 -133.421)"/><path class="a" d="M154.217,368.591a2.444,2.444,0,1,0,2.444,2.444A2.444,2.444,0,0,0,154.217,368.591Z" transform="translate(-58.372 -141.76)"/><path class="a" d="M132.535,0a2.444,2.444,0,1,0,2.444,2.444A2.444,2.444,0,0,0,132.535,0Z" transform="translate(-50.033)"/><path class="a" d="M132.535,21.682a2.444,2.444,0,1,0,2.444,2.444A2.444,2.444,0,0,0,132.535,21.682Z" transform="translate(-50.033 -8.339)"/><path class="a" d="M132.535,43.364a2.444,2.444,0,1,0,2.444,2.444A2.444,2.444,0,0,0,132.535,43.364Z" transform="translate(-50.033 -16.678)"/><path class="a" d="M132.535,65.045a2.444,2.444,0,1,0,2.444,2.444A2.444,2.444,0,0,0,132.535,65.045Z" transform="translate(-50.033 -25.016)"/><path class="a" d="M132.535,86.727a2.444,2.444,0,1,0,2.444,2.444A2.444,2.444,0,0,0,132.535,86.727Z" transform="translate(-50.033 -33.355)"/><path class="a" d="M132.535,108.409a2.444,2.444,0,1,0,2.444,2.444A2.444,2.444,0,0,0,132.535,108.409Z" transform="translate(-50.033 -41.694)"/><path class="a" d="M132.535,130.091a2.444,2.444,0,1,0,2.444,2.444A2.444,2.444,0,0,0,132.535,130.091Z" transform="translate(-50.033 -50.033)"/><path class="a" d="M132.535,151.773a2.444,2.444,0,1,0,2.444,2.444A2.444,2.444,0,0,0,132.535,151.773Z" transform="translate(-50.033 -58.372)"/><path class="a" d="M132.535,173.454a2.444,2.444,0,1,0,2.444,2.444A2.444,2.444,0,0,0,132.535,173.454Z" transform="translate(-50.033 -66.711)"/><path class="a" d="M132.535,195.136a2.444,2.444,0,1,0,2.444,2.444A2.444,2.444,0,0,0,132.535,195.136Z" transform="translate(-50.033 -75.049)"/><path class="a" d="M132.535,216.818a2.444,2.444,0,1,0,2.444,2.444A2.444,2.444,0,0,0,132.535,216.818Z" transform="translate(-50.033 -83.388)"/><path class="a" d="M132.535,238.5a2.444,2.444,0,1,0,2.444,2.444A2.444,2.444,0,0,0,132.535,238.5Z" transform="translate(-50.033 -91.727)"/><path class="a" d="M132.535,260.182a2.444,2.444,0,1,0,2.444,2.444A2.444,2.444,0,0,0,132.535,260.182Z" transform="translate(-50.033 -100.066)"/><path class="a" d="M132.535,281.863a2.444,2.444,0,1,0,2.444,2.444A2.444,2.444,0,0,0,132.535,281.863Z" transform="translate(-50.033 -108.405)"/><path class="a" d="M132.535,303.545a2.444,2.444,0,1,0,2.444,2.444A2.444,2.444,0,0,0,132.535,303.545Z" transform="translate(-50.033 -116.744)"/><path class="a" d="M132.535,325.227a2.444,2.444,0,1,0,2.444,2.444A2.444,2.444,0,0,0,132.535,325.227Z" transform="translate(-50.033 -125.083)"/><path class="a" d="M132.535,346.909a2.444,2.444,0,1,0,2.444,2.444A2.444,2.444,0,0,0,132.535,346.909Z" transform="translate(-50.033 -133.421)"/><path class="a" d="M132.535,368.591a2.444,2.444,0,1,0,2.444,2.444A2.444,2.444,0,0,0,132.535,368.591Z" transform="translate(-50.033 -141.76)"/><path class="a" d="M110.853,0A2.444,2.444,0,1,0,113.3,2.444,2.444,2.444,0,0,0,110.853,0Z" transform="translate(-41.694)"/><path class="a" d="M110.853,21.682a2.444,2.444,0,1,0,2.444,2.444A2.444,2.444,0,0,0,110.853,21.682Z" transform="translate(-41.694 -8.339)"/><path class="a" d="M110.853,43.364a2.444,2.444,0,1,0,2.444,2.444A2.444,2.444,0,0,0,110.853,43.364Z" transform="translate(-41.694 -16.678)"/><path class="a" d="M110.853,65.045a2.444,2.444,0,1,0,2.444,2.444A2.444,2.444,0,0,0,110.853,65.045Z" transform="translate(-41.694 -25.016)"/><path class="a" d="M110.853,86.727a2.444,2.444,0,1,0,2.444,2.444A2.444,2.444,0,0,0,110.853,86.727Z" transform="translate(-41.694 -33.355)"/><path class="a" d="M110.853,108.409a2.444,2.444,0,1,0,2.444,2.444A2.444,2.444,0,0,0,110.853,108.409Z" transform="translate(-41.694 -41.694)"/><path class="a" d="M110.853,130.091a2.444,2.444,0,1,0,2.444,2.444A2.444,2.444,0,0,0,110.853,130.091Z" transform="translate(-41.694 -50.033)"/><path class="a" d="M110.853,151.773a2.444,2.444,0,1,0,2.444,2.444A2.444,2.444,0,0,0,110.853,151.773Z" transform="translate(-41.694 -58.372)"/><path class="a" d="M110.853,173.454A2.444,2.444,0,1,0,113.3,175.9,2.444,2.444,0,0,0,110.853,173.454Z" transform="translate(-41.694 -66.711)"/><path class="a" d="M110.853,195.136a2.444,2.444,0,1,0,2.444,2.444A2.444,2.444,0,0,0,110.853,195.136Z" transform="translate(-41.694 -75.049)"/><path class="a" d="M110.853,216.818a2.444,2.444,0,1,0,2.444,2.444A2.444,2.444,0,0,0,110.853,216.818Z" transform="translate(-41.694 -83.388)"/><path class="a" d="M110.853,238.5a2.444,2.444,0,1,0,2.444,2.444A2.444,2.444,0,0,0,110.853,238.5Z" transform="translate(-41.694 -91.727)"/><path class="a" d="M110.853,260.182a2.444,2.444,0,1,0,2.444,2.444A2.444,2.444,0,0,0,110.853,260.182Z" transform="translate(-41.694 -100.066)"/><path class="a" d="M110.853,281.863a2.444,2.444,0,1,0,2.444,2.444A2.444,2.444,0,0,0,110.853,281.863Z" transform="translate(-41.694 -108.405)"/><path class="a" d="M110.853,303.545a2.444,2.444,0,1,0,2.444,2.444A2.444,2.444,0,0,0,110.853,303.545Z" transform="translate(-41.694 -116.744)"/><path class="a" d="M110.853,325.227a2.444,2.444,0,1,0,2.444,2.444A2.444,2.444,0,0,0,110.853,325.227Z" transform="translate(-41.694 -125.083)"/><path class="a" d="M110.853,346.909a2.444,2.444,0,1,0,2.444,2.444A2.444,2.444,0,0,0,110.853,346.909Z" transform="translate(-41.694 -133.421)"/><path class="a" d="M110.853,368.591a2.444,2.444,0,1,0,2.444,2.444A2.444,2.444,0,0,0,110.853,368.591Z" transform="translate(-41.694 -141.76)"/><path class="a" d="M89.172,0a2.444,2.444,0,1,0,2.444,2.444A2.444,2.444,0,0,0,89.172,0Z" transform="translate(-33.356)"/><path class="a" d="M89.172,21.682a2.444,2.444,0,1,0,2.444,2.444A2.444,2.444,0,0,0,89.172,21.682Z" transform="translate(-33.356 -8.339)"/><path class="a" d="M89.172,43.364a2.444,2.444,0,1,0,2.444,2.444A2.444,2.444,0,0,0,89.172,43.364Z" transform="translate(-33.356 -16.678)"/><path class="a" d="M89.172,65.045a2.444,2.444,0,1,0,2.444,2.444A2.444,2.444,0,0,0,89.172,65.045Z" transform="translate(-33.356 -25.016)"/><path class="a" d="M89.172,86.727a2.444,2.444,0,1,0,2.444,2.444A2.444,2.444,0,0,0,89.172,86.727Z" transform="translate(-33.356 -33.355)"/><path class="a" d="M89.172,108.409a2.444,2.444,0,1,0,2.444,2.444A2.444,2.444,0,0,0,89.172,108.409Z" transform="translate(-33.356 -41.694)"/><path class="a" d="M89.172,130.091a2.444,2.444,0,1,0,2.444,2.444A2.444,2.444,0,0,0,89.172,130.091Z" transform="translate(-33.356 -50.033)"/><path class="a" d="M89.172,151.773a2.444,2.444,0,1,0,2.444,2.444A2.444,2.444,0,0,0,89.172,151.773Z" transform="translate(-33.356 -58.372)"/><path class="a" d="M89.172,173.454a2.444,2.444,0,1,0,2.444,2.444A2.444,2.444,0,0,0,89.172,173.454Z" transform="translate(-33.356 -66.711)"/><path class="a" d="M89.172,195.136a2.444,2.444,0,1,0,2.444,2.444A2.444,2.444,0,0,0,89.172,195.136Z" transform="translate(-33.356 -75.049)"/><path class="a" d="M89.172,216.818a2.444,2.444,0,1,0,2.444,2.444A2.444,2.444,0,0,0,89.172,216.818Z" transform="translate(-33.356 -83.388)"/><path class="a" d="M89.172,238.5a2.444,2.444,0,1,0,2.444,2.444A2.444,2.444,0,0,0,89.172,238.5Z" transform="translate(-33.356 -91.727)"/><path class="a" d="M89.172,260.182a2.444,2.444,0,1,0,2.444,2.444A2.444,2.444,0,0,0,89.172,260.182Z" transform="translate(-33.356 -100.066)"/><path class="a" d="M89.172,281.863a2.444,2.444,0,1,0,2.444,2.444A2.444,2.444,0,0,0,89.172,281.863Z" transform="translate(-33.356 -108.405)"/><path class="a" d="M89.172,303.545a2.444,2.444,0,1,0,2.444,2.444A2.444,2.444,0,0,0,89.172,303.545Z" transform="translate(-33.356 -116.744)"/><path class="a" d="M89.172,325.227a2.444,2.444,0,1,0,2.444,2.444A2.444,2.444,0,0,0,89.172,325.227Z" transform="translate(-33.356 -125.083)"/><path class="a" d="M89.172,346.909a2.444,2.444,0,1,0,2.444,2.444A2.444,2.444,0,0,0,89.172,346.909Z" transform="translate(-33.356 -133.421)"/><path class="a" d="M89.172,368.591a2.444,2.444,0,1,0,2.444,2.444A2.444,2.444,0,0,0,89.172,368.591Z" transform="translate(-33.356 -141.76)"/><path class="a" d="M67.49,0a2.444,2.444,0,1,0,2.444,2.444A2.444,2.444,0,0,0,67.49,0Z" transform="translate(-25.017)"/><path class="a" d="M67.49,21.682a2.444,2.444,0,1,0,2.444,2.444A2.444,2.444,0,0,0,67.49,21.682Z" transform="translate(-25.017 -8.339)"/><path class="a" d="M67.49,43.364a2.444,2.444,0,1,0,2.444,2.444A2.444,2.444,0,0,0,67.49,43.364Z" transform="translate(-25.017 -16.678)"/><path class="a" d="M67.49,65.045a2.444,2.444,0,1,0,2.444,2.444A2.444,2.444,0,0,0,67.49,65.045Z" transform="translate(-25.017 -25.016)"/><path class="a" d="M67.49,86.727a2.444,2.444,0,1,0,2.444,2.444A2.444,2.444,0,0,0,67.49,86.727Z" transform="translate(-25.017 -33.355)"/><path class="a" d="M67.49,108.409a2.444,2.444,0,1,0,2.444,2.444A2.444,2.444,0,0,0,67.49,108.409Z" transform="translate(-25.017 -41.694)"/><path class="a" d="M67.49,130.091a2.444,2.444,0,1,0,2.444,2.444A2.444,2.444,0,0,0,67.49,130.091Z" transform="translate(-25.017 -50.033)"/><path class="a" d="M67.49,151.773a2.444,2.444,0,1,0,2.444,2.444A2.444,2.444,0,0,0,67.49,151.773Z" transform="translate(-25.017 -58.372)"/><path class="a" d="M67.49,173.454a2.444,2.444,0,1,0,2.444,2.444A2.444,2.444,0,0,0,67.49,173.454Z" transform="translate(-25.017 -66.711)"/><path class="a" d="M67.49,195.136a2.444,2.444,0,1,0,2.444,2.444A2.444,2.444,0,0,0,67.49,195.136Z" transform="translate(-25.017 -75.049)"/><path class="a" d="M67.49,216.818a2.444,2.444,0,1,0,2.444,2.444A2.444,2.444,0,0,0,67.49,216.818Z" transform="translate(-25.017 -83.388)"/><path class="a" d="M67.49,238.5a2.444,2.444,0,1,0,2.444,2.444A2.444,2.444,0,0,0,67.49,238.5Z" transform="translate(-25.017 -91.727)"/><path class="a" d="M67.49,260.182a2.444,2.444,0,1,0,2.444,2.444A2.444,2.444,0,0,0,67.49,260.182Z" transform="translate(-25.017 -100.066)"/><path class="a" d="M67.49,281.863a2.444,2.444,0,1,0,2.444,2.444A2.444,2.444,0,0,0,67.49,281.863Z" transform="translate(-25.017 -108.405)"/><path class="a" d="M67.49,303.545a2.444,2.444,0,1,0,2.444,2.444A2.444,2.444,0,0,0,67.49,303.545Z" transform="translate(-25.017 -116.744)"/><path class="a" d="M67.49,325.227a2.444,2.444,0,1,0,2.444,2.444A2.444,2.444,0,0,0,67.49,325.227Z" transform="translate(-25.017 -125.083)"/><path class="a" d="M67.49,346.909a2.444,2.444,0,1,0,2.444,2.444A2.444,2.444,0,0,0,67.49,346.909Z" transform="translate(-25.017 -133.421)"/><path class="a" d="M67.49,368.591a2.444,2.444,0,1,0,2.444,2.444A2.444,2.444,0,0,0,67.49,368.591Z" transform="translate(-25.017 -141.76)"/><path class="a" d="M45.807,0a2.444,2.444,0,1,0,2.444,2.444A2.444,2.444,0,0,0,45.807,0Z" transform="translate(-16.677)"/><path class="a" d="M45.807,21.682a2.444,2.444,0,1,0,2.444,2.444A2.444,2.444,0,0,0,45.807,21.682Z" transform="translate(-16.677 -8.339)"/><path class="a" d="M45.807,43.364a2.444,2.444,0,1,0,2.444,2.444A2.444,2.444,0,0,0,45.807,43.364Z" transform="translate(-16.677 -16.678)"/><path class="a" d="M45.807,65.045a2.444,2.444,0,1,0,2.444,2.444A2.444,2.444,0,0,0,45.807,65.045Z" transform="translate(-16.677 -25.016)"/><path class="a" d="M45.807,86.727a2.444,2.444,0,1,0,2.444,2.444A2.444,2.444,0,0,0,45.807,86.727Z" transform="translate(-16.677 -33.355)"/><path class="a" d="M45.807,108.409a2.444,2.444,0,1,0,2.444,2.444A2.444,2.444,0,0,0,45.807,108.409Z" transform="translate(-16.677 -41.694)"/><path class="a" d="M45.807,130.091a2.444,2.444,0,1,0,2.444,2.444A2.444,2.444,0,0,0,45.807,130.091Z" transform="translate(-16.677 -50.033)"/><path class="a" d="M45.807,151.773a2.444,2.444,0,1,0,2.444,2.444A2.444,2.444,0,0,0,45.807,151.773Z" transform="translate(-16.677 -58.372)"/><path class="a" d="M45.807,173.454a2.444,2.444,0,1,0,2.444,2.444A2.444,2.444,0,0,0,45.807,173.454Z" transform="translate(-16.677 -66.711)"/><path class="a" d="M45.807,195.136a2.444,2.444,0,1,0,2.444,2.444A2.444,2.444,0,0,0,45.807,195.136Z" transform="translate(-16.677 -75.049)"/><path class="a" d="M45.807,216.818a2.444,2.444,0,1,0,2.444,2.444A2.444,2.444,0,0,0,45.807,216.818Z" transform="translate(-16.677 -83.388)"/><path class="a" d="M45.807,238.5a2.444,2.444,0,1,0,2.444,2.444A2.444,2.444,0,0,0,45.807,238.5Z" transform="translate(-16.677 -91.727)"/><path class="a" d="M45.807,260.182a2.444,2.444,0,1,0,2.444,2.444A2.444,2.444,0,0,0,45.807,260.182Z" transform="translate(-16.677 -100.066)"/><path class="a" d="M45.807,281.863a2.444,2.444,0,1,0,2.444,2.444A2.444,2.444,0,0,0,45.807,281.863Z" transform="translate(-16.677 -108.405)"/><path class="a" d="M45.807,303.545a2.444,2.444,0,1,0,2.444,2.444A2.444,2.444,0,0,0,45.807,303.545Z" transform="translate(-16.677 -116.744)"/><path class="a" d="M45.807,325.227a2.444,2.444,0,1,0,2.444,2.444A2.444,2.444,0,0,0,45.807,325.227Z" transform="translate(-16.677 -125.083)"/><path class="a" d="M45.807,346.909a2.444,2.444,0,1,0,2.444,2.444A2.444,2.444,0,0,0,45.807,346.909Z" transform="translate(-16.677 -133.421)"/><path class="a" d="M45.807,368.591a2.444,2.444,0,1,0,2.444,2.444A2.444,2.444,0,0,0,45.807,368.591Z" transform="translate(-16.677 -141.76)"/><path class="a" d="M24.126,0A2.444,2.444,0,1,0,26.57,2.444,2.444,2.444,0,0,0,24.126,0Z" transform="translate(-8.339)"/><path class="a" d="M24.126,21.682a2.444,2.444,0,1,0,2.444,2.444A2.444,2.444,0,0,0,24.126,21.682Z" transform="translate(-8.339 -8.339)"/><path class="a" d="M24.126,43.364a2.444,2.444,0,1,0,2.444,2.444A2.444,2.444,0,0,0,24.126,43.364Z" transform="translate(-8.339 -16.678)"/><path class="a" d="M24.126,65.045a2.444,2.444,0,1,0,2.444,2.444A2.444,2.444,0,0,0,24.126,65.045Z" transform="translate(-8.339 -25.016)"/><path class="a" d="M24.126,86.727a2.444,2.444,0,1,0,2.444,2.444A2.444,2.444,0,0,0,24.126,86.727Z" transform="translate(-8.339 -33.355)"/><path class="a" d="M24.126,108.409a2.444,2.444,0,1,0,2.444,2.444A2.444,2.444,0,0,0,24.126,108.409Z" transform="translate(-8.339 -41.694)"/><path class="a" d="M24.126,130.091a2.444,2.444,0,1,0,2.444,2.444A2.444,2.444,0,0,0,24.126,130.091Z" transform="translate(-8.339 -50.033)"/><path class="a" d="M24.126,151.773a2.444,2.444,0,1,0,2.444,2.444A2.444,2.444,0,0,0,24.126,151.773Z" transform="translate(-8.339 -58.372)"/><path class="a" d="M24.126,173.454A2.444,2.444,0,1,0,26.57,175.9,2.444,2.444,0,0,0,24.126,173.454Z" transform="translate(-8.339 -66.711)"/><path class="a" d="M24.126,195.136a2.444,2.444,0,1,0,2.444,2.444A2.444,2.444,0,0,0,24.126,195.136Z" transform="translate(-8.339 -75.049)"/><path class="a" d="M24.126,216.818a2.444,2.444,0,1,0,2.444,2.444A2.444,2.444,0,0,0,24.126,216.818Z" transform="translate(-8.339 -83.388)"/><path class="a" d="M24.126,238.5a2.444,2.444,0,1,0,2.444,2.444A2.444,2.444,0,0,0,24.126,238.5Z" transform="translate(-8.339 -91.727)"/><path class="a" d="M24.126,260.182a2.444,2.444,0,1,0,2.444,2.444A2.444,2.444,0,0,0,24.126,260.182Z" transform="translate(-8.339 -100.066)"/><path class="a" d="M24.126,281.863a2.444,2.444,0,1,0,2.444,2.444A2.444,2.444,0,0,0,24.126,281.863Z" transform="translate(-8.339 -108.405)"/><path class="a" d="M24.126,303.545a2.444,2.444,0,1,0,2.444,2.444A2.444,2.444,0,0,0,24.126,303.545Z" transform="translate(-8.339 -116.744)"/><path class="a" d="M24.126,325.227a2.444,2.444,0,1,0,2.444,2.444A2.444,2.444,0,0,0,24.126,325.227Z" transform="translate(-8.339 -125.083)"/><path class="a" d="M24.126,346.909a2.444,2.444,0,1,0,2.444,2.444A2.444,2.444,0,0,0,24.126,346.909Z" transform="translate(-8.339 -133.421)"/><path class="a" d="M24.126,368.591a2.444,2.444,0,1,0,2.444,2.444A2.444,2.444,0,0,0,24.126,368.591Z" transform="translate(-8.339 -141.76)"/><path class="a" d="M2.444,0A2.444,2.444,0,1,0,4.889,2.444,2.444,2.444,0,0,0,2.444,0Z"/><path class="a" d="M2.444,21.682a2.444,2.444,0,1,0,2.444,2.444A2.444,2.444,0,0,0,2.444,21.682Z" transform="translate(0 -8.339)"/><path class="a" d="M2.444,43.364a2.444,2.444,0,1,0,2.444,2.444A2.444,2.444,0,0,0,2.444,43.364Z" transform="translate(0 -16.678)"/><path class="a" d="M2.444,65.045a2.444,2.444,0,1,0,2.444,2.444A2.444,2.444,0,0,0,2.444,65.045Z" transform="translate(0 -25.016)"/><path class="a" d="M2.444,86.727a2.444,2.444,0,1,0,2.444,2.444A2.444,2.444,0,0,0,2.444,86.727Z" transform="translate(0 -33.355)"/><path class="a" d="M2.444,108.409a2.444,2.444,0,1,0,2.444,2.444A2.444,2.444,0,0,0,2.444,108.409Z" transform="translate(0 -41.694)"/><path class="a" d="M2.444,130.091a2.444,2.444,0,1,0,2.444,2.444A2.444,2.444,0,0,0,2.444,130.091Z" transform="translate(0 -50.033)"/><path class="a" d="M2.444,151.773a2.444,2.444,0,1,0,2.444,2.444A2.444,2.444,0,0,0,2.444,151.773Z" transform="translate(0 -58.372)"/><path class="a" d="M2.444,173.454A2.444,2.444,0,1,0,4.889,175.9,2.444,2.444,0,0,0,2.444,173.454Z" transform="translate(0 -66.711)"/><path class="a" d="M2.444,195.136a2.444,2.444,0,1,0,2.444,2.444A2.444,2.444,0,0,0,2.444,195.136Z" transform="translate(0 -75.049)"/><path class="a" d="M2.444,216.818a2.444,2.444,0,1,0,2.444,2.444A2.444,2.444,0,0,0,2.444,216.818Z" transform="translate(0 -83.388)"/><path class="a" d="M2.444,238.5a2.444,2.444,0,1,0,2.444,2.444A2.444,2.444,0,0,0,2.444,238.5Z" transform="translate(0 -91.727)"/><path class="a" d="M2.444,260.182a2.444,2.444,0,1,0,2.444,2.444A2.444,2.444,0,0,0,2.444,260.182Z" transform="translate(0 -100.066)"/><path class="a" d="M2.444,281.863a2.444,2.444,0,1,0,2.444,2.444A2.444,2.444,0,0,0,2.444,281.863Z" transform="translate(0 -108.405)"/><path class="a" d="M2.444,303.545a2.444,2.444,0,1,0,2.444,2.444A2.444,2.444,0,0,0,2.444,303.545Z" transform="translate(0 -116.744)"/><path class="a" d="M2.444,325.227a2.444,2.444,0,1,0,2.444,2.444A2.444,2.444,0,0,0,2.444,325.227Z" transform="translate(0 -125.083)"/><path class="a" d="M2.444,346.909a2.444,2.444,0,1,0,2.444,2.444A2.444,2.444,0,0,0,2.444,346.909Z" transform="translate(0 -133.421)"/><path class="a" d="M2.444,368.591a2.444,2.444,0,1,0,2.444,2.444A2.444,2.444,0,0,0,2.444,368.591Z" transform="translate(0 -141.76)"/></svg>