<?xml version="1.0" encoding="utf-8"?>
<!-- Generator: Adobe Illustrator 24.0.0, SVG Export Plug-In . SVG Version: 6.00 Build 0)  -->
<svg version="1.1" id="Layer_1" xmlns="http://www.w3.org/2000/svg" xmlns:xlink="http://www.w3.org/1999/xlink" x="0px" y="0px"
	 viewBox="0 0 139 52" style="enable-background:new 0 0 139 52;" xml:space="preserve">
<style type="text/css">
	.st0{fill:#70797C;}
</style>
<g>
	<g>
		<path class="st0" d="M0,34.1V10h6.1v24H0z"/>
		<path class="st0" d="M42.5,34.1l8.3-24h7.4l8.3,24H60l-1-3.5h-9.2l-0.9,3.5H42.5z M51.2,26h6.5l-3.2-11.1L51.2,26z"/>
		<path class="st0" d="M86,17.7c-0.6-0.9-1.3-1.6-2.2-2c-0.9-0.4-1.9-0.7-3-0.7c-1.9,0-3.4,0.7-4.7,2c-1.2,1.3-1.8,3-1.8,5.1
			c0,2.1,0.6,3.8,1.8,5.1c1.2,1.3,2.8,2,4.7,2c1.4,0,2.7-0.3,3.8-1.1c1.1-0.7,1.9-1.7,2.4-3h-6.2v-4.6h12.5c0,0.1,0,0.3,0.1,0.7
			c0.1,0.3,0.1,0.6,0.1,0.8c0,1.2-0.2,2.4-0.4,3.7c-0.3,1.2-0.7,2.2-1.2,2.9c-1.3,2-2.9,3.6-4.7,4.6s-3.9,1.5-6.3,1.5
			c-1.8,0-3.4-0.3-4.9-0.9c-1.5-0.6-2.9-1.5-4-2.7c-1.2-1.2-2-2.5-2.7-4c-0.6-1.5-0.9-3.2-0.9-4.9c0-1.8,0.3-3.4,0.9-4.9
			s1.5-2.9,2.7-4c1.2-1.2,2.5-2,4-2.6c1.5-0.6,3.2-0.9,5-0.9c1.9,0,3.7,0.3,5.3,1.1c1.6,0.7,3,1.8,4.3,3.2L86,17.7z"/>
		<path class="st0" d="M98,34.1V10h6.1v24H98z"/>
		<g>
			<path class="st0" d="M110.3,10l7.7,12.1c0.4,0.7,0.8,1.3,1.2,2c0.1,0.2,0.2,0.5,0.4,0.8V10H110v0.1L110.3,10L110.3,10z"/>
			<path class="st0" d="M111.4,21.8c-0.3-0.4-0.6-1-0.9-1.7c-0.1-0.2-0.3-0.5-0.4-0.8v14.7h9.5v-0.1L111.4,21.8z"/>
		</g>
		<path class="st0" d="M125.5,34.1V10H139v4.7h-7.4v4.9h7.4v4.7h-7.4v4.9h7.4v4.9C139,34.1,125.5,34.1,125.5,34.1z"/>
		<polygon class="st0" points="98.6,6.6 103.9,6.6 111.1,0 103.1,0 		"/>
		<path class="st0" d="M31.8,10.3l-6.2,13.1l-5.9-13.1h-7.4v24h5.5v-9.6v-2.6v-3.7c0.3,0.7,0.6,1.4,0.9,2.2c0.1,0.3,0.2,0.5,0.3,0.6
			l6.5,13.6l6.6-13.7l0.1-0.2c0.5-1,0.9-1.9,1.2-2.7v3.3c0,0.2,0,0.4,0,0.6v12.2H39v-24H31.8z"/>
	</g>
	<g>
		<path class="st0" d="M30.7,41.6h1.2H33v10.1h-1.1h-1.2V41.6z"/>
		<path class="st0" d="M39.8,51.8h-1.2h-1.1V41.6h1.3h1.3l5.1,7.4v-7.4h1.1h1.2v10.1h-1.3H45l-5.2-7.5V51.8z"/>
		<path class="st0" d="M53.3,43.4h-2.3v-0.9v-0.9h6.9v0.9v0.9h-2.3v8.4h-1.2h-1.1L53.3,43.4L53.3,43.4z"/>
		<path class="st0" d="M60.7,51.8V41.6h7.5v0.9v0.9h-4.9v2.5H68v0.9v0.8h-4.7V50h4.9v0.9v0.9H60.7z"/>
		<path class="st0" d="M71.2,41.6h1.1h2.5c1.4,0,2.6,0.3,3.4,0.8c0.8,0.6,1.2,1.3,1.2,2.3c0,1.1-0.4,1.9-1.2,2.5
			c-0.5,0.3-1.2,0.6-2,0.7l3.3,3.8h-1.3h-1.3l-3.4-4v4h-1.2h-1.1V41.6z M73.5,46.5h1.2c0.8,0,1.4-0.1,1.9-0.4
			c0.4-0.3,0.6-0.7,0.6-1.2c0-0.5-0.2-0.9-0.6-1.2c-0.4-0.3-1.1-0.4-1.9-0.4h-1.2V46.5z"/>
		<path class="st0" d="M82.1,41.6h1.2h1.1v10.1h-1.1h-1.2V41.6z"/>
		<path class="st0" d="M88.1,50.4c-1.1-1.1-1.7-2.3-1.7-3.7c0-1.4,0.6-2.7,1.7-3.7c1.1-1.1,2.4-1.6,4-1.6s2.9,0.5,4,1.6
			s1.6,2.3,1.6,3.7c0,1.4-0.6,2.7-1.6,3.7c-1.1,1.1-2.4,1.6-4,1.6C90.5,52,89.2,51.5,88.1,50.4z M94.6,49.2c0.7-0.7,1.1-1.5,1.1-2.5
			c0-1-0.3-1.8-1.1-2.5c-0.7-0.7-1.6-1.1-2.5-1.1c-1,0-1.9,0.3-2.5,1.1c-0.7,0.7-1.1,1.5-1.1,2.5c0,1,0.3,1.8,1.1,2.5
			s1.6,1.1,2.5,1.1C93,50.2,93.9,49.9,94.6,49.2z"/>
		<path class="st0" d="M100.1,41.6h1.1h2.5c1.4,0,2.6,0.3,3.4,0.8c0.8,0.6,1.2,1.3,1.2,2.3c0,1.1-0.4,1.9-1.2,2.5
			c-0.5,0.3-1.2,0.6-2,0.7l3.3,3.8H107h-1.3l-3.4-4v4h-1.2h-1.1V41.6z M102.3,46.5h1.2c0.8,0,1.4-0.1,1.9-0.4
			c0.4-0.3,0.6-0.7,0.6-1.2c0-0.5-0.2-0.9-0.6-1.2c-0.4-0.3-1.1-0.4-1.9-0.4h-1.2V46.5z"/>
	</g>
</g>
</svg>
