<?xml version="1.0" encoding="utf-8"?>
<!-- Generator: Adobe Illustrator 24.0.0, SVG Export Plug-In . SVG Version: 6.00 Build 0)  -->
<svg version="1.1" id="Layer_1" xmlns="http://www.w3.org/2000/svg" xmlns:xlink="http://www.w3.org/1999/xlink" x="0px" y="0px"
	 viewBox="0 0 28 28" style="enable-background:new 0 0 28 28;" xml:space="preserve">
<style type="text/css">
	.st0{fill:#AFB5BC;}
</style>
<path class="st0" d="M19.3,0H8.8C3.9,0,0,3.9,0,8.8v10.5C0,24.1,3.9,28,8.8,28h10.5c4.8,0,8.8-3.9,8.8-8.8V8.8C28,3.9,24.1,0,19.3,0
	z M25.4,19.3c0,3.4-2.8,6.1-6.1,6.1H8.8c-3.4,0-6.1-2.8-6.1-6.1V8.8c0-3.4,2.8-6.1,6.1-6.1h10.5c3.4,0,6.1,2.8,6.1,6.1
	C25.4,8.8,25.4,19.3,25.4,19.3z M14,7c-3.9,0-7,3.1-7,7s3.1,7,7,7s7-3.1,7-7S17.9,7,14,7z M14,18.4c-2.4,0-4.4-2-4.4-4.4
	c0-2.4,2-4.4,4.4-4.4s4.4,2,4.4,4.4C18.4,16.4,16.4,18.4,14,18.4z M21.5,5.5c0.5,0,0.9,0.4,0.9,0.9s-0.4,0.9-0.9,0.9
	c-0.5,0-0.9-0.4-0.9-0.9S21,5.5,21.5,5.5z"/>
</svg>
