<?xml version="1.0" encoding="utf-8"?>
<!-- Generator: Adobe Illustrator 24.0.0, SVG Export Plug-In . SVG Version: 6.00 Build 0)  -->
<svg version="1.1" id="Layer_1" xmlns="http://www.w3.org/2000/svg" xmlns:xlink="http://www.w3.org/1999/xlink" x="0px" y="0px"
	 viewBox="0 0 28.4 27.2" style="enable-background:new 0 0 28.4 27.2;" xml:space="preserve">
<style type="text/css">
	.st0{fill:#AFB5BC;}
</style>
<path class="st0" d="M28.4,16.7v10.5h-6.1v-9.8c0-2.5-0.9-4.1-3.1-4.1c-1.7,0-2.7,1.1-3.1,2.2c-0.2,0.4-0.2,0.9-0.2,1.5v10.2H9.8
	c0,0,0.1-16.6,0-18.3h6.1v2.6c0,0,0,0,0,0.1h0v-0.1c0.8-1.2,2.3-3,5.5-3C25.4,8.4,28.4,11,28.4,16.7z M3.5,0C1.4,0,0,1.4,0,3.2
	c0,1.8,1.3,3.2,3.4,3.2h0c2.1,0,3.4-1.4,3.4-3.2C6.8,1.4,5.5,0,3.5,0z M0.4,27.2h6.1V8.8H0.4C0.4,8.8,0.4,27.2,0.4,27.2z"/>
</svg>
