<?xml version="1.0" encoding="utf-8"?>
<!-- Generator: Adobe Illustrator 24.0.0, SVG Export Plug-In . SVG Version: 6.00 Build 0)  -->
<svg version="1.1" id="Layer_1" xmlns="http://www.w3.org/2000/svg" xmlns:xlink="http://www.w3.org/1999/xlink" x="0px" y="0px"
	 viewBox="0 0 251 93.9" style="enable-background:new 0 0 251 93.9;" xml:space="preserve">
<g>
	<g>
		<path class="st0" d="M0,61.5V18.1h11v43.4H0z"/>
		<path class="st0" d="M76.7,61.5l14.9-43.4H105l14.9,43.4h-11.5l-1.8-6.3H89.9l-1.7,6.3H76.7z M92.4,47h11.7l-5.8-20.1L92.4,47z"/>
		<path class="st0" d="M155.3,31.9c-1.1-1.6-2.4-2.8-4-3.7c-1.6-0.8-3.4-1.3-5.4-1.3c-3.4,0-6.2,1.2-8.4,3.6
			c-2.2,2.4-3.3,5.5-3.3,9.2c0,3.8,1.1,6.8,3.3,9.2c2.2,2.4,5,3.6,8.4,3.6c2.6,0,4.9-0.6,6.9-1.9c2-1.3,3.4-3.1,4.3-5.5h-11.2v-8.3
			h22.5c0,0.2,0,0.6,0.1,1.2c0.1,0.6,0.1,1.1,0.1,1.4c0,2.2-0.3,4.4-0.8,6.6c-0.6,2.2-1.3,3.9-2.1,5.3c-2.4,3.7-5.2,6.5-8.4,8.3
			c-3.2,1.8-7,2.7-11.3,2.7c-3.2,0-6.2-0.5-8.9-1.6s-5.2-2.7-7.3-4.8c-2.1-2.1-3.7-4.5-4.8-7.2c-1.1-2.7-1.6-5.7-1.6-8.9
			c0-3.2,0.5-6.2,1.6-8.9c1.1-2.7,2.7-5.2,4.8-7.3c2.1-2.1,4.5-3.7,7.2-4.7c2.7-1.1,5.7-1.6,9-1.6c3.5,0,6.7,0.6,9.6,1.9
			c2.9,1.3,5.5,3.2,7.8,5.7L155.3,31.9z"/>
		<path class="st1" d="M176.9,61.5V18.1h11v43.4H176.9z"/>
		<g>
			<path class="st0" d="M199.2,18.1L213.1,40c0.8,1.2,1.5,2.4,2.1,3.6c0.2,0.4,0.4,0.9,0.7,1.4V18.1h-17.2v0.1H199.2z"/>
			<path class="st0" d="M201.2,39.4c-0.5-0.8-1.1-1.8-1.7-3c-0.2-0.4-0.5-0.9-0.7-1.4v26.5h17.2v-0.2L201.2,39.4z"/>
		</g>
		<path class="st0" d="M226.7,61.5V18.1H251v8.4h-13.4v8.9H251v8.4h-13.4v8.9H251v8.8H226.7z"/>
		<polygon class="st1" points="178,11.9 187.7,11.9 200.7,0 186.2,0 		"/>
		<path class="st0" d="M57.4,18.6L46.2,42.3L35.6,18.6H22.2v43.4h10V44.6v-4.7v-6.7c0.5,1.2,1.1,2.5,1.7,3.9
			c0.2,0.5,0.4,0.9,0.5,1.1l11.7,24.6L58,38.1l0.2-0.4c0.9-1.8,1.6-3.4,2.2-4.8v5.9c0,0.4,0,0.8,0,1.1v22h10V18.6H57.4z"/>
	</g>
	<g>
		<path class="st0" d="M55.4,75.2h2.1h2v18.3h-2h-2.1V75.2z"/>
		<path class="st0" d="M71.8,93.5h-2.1h-2V75.2h2.4h2.4l9.2,13.4V75.2h2h2.1v18.3h-2.3h-2.3L71.8,80V93.5z"/>
		<path class="st0" d="M96.3,78.4h-4.1v-1.6v-1.6h12.4v1.6v1.6h-4.1v15.2h-2.1h-2V78.4z"/>
		<path class="st0" d="M109.6,93.5V75.2h13.6v1.6v1.6h-8.9v4.5h8.5v1.6V86h-8.5v4.3h8.9v1.6v1.6H109.6z"/>
		<path class="st0" d="M128.6,75.2h2h4.5c2.6,0,4.7,0.5,6.1,1.5c1.4,1,2.2,2.4,2.2,4.2c0,2-0.7,3.5-2.2,4.6
			c-0.9,0.6-2.1,1.1-3.6,1.3l6,6.8h-2.4h-2.4l-6.1-7.3v7.3h-2.1h-2V75.2z M132.7,84h2.1c1.5,0,2.6-0.2,3.4-0.7
			c0.8-0.5,1.1-1.2,1.1-2.1c0-0.9-0.4-1.7-1.1-2.1c-0.8-0.5-1.9-0.7-3.4-0.7h-2.1V84z"/>
		<path class="st0" d="M148.2,75.2h2.1h2v18.3h-2h-2.1V75.2z"/>
		<path class="st0" d="M159.1,91.1c-2-1.9-3-4.1-3-6.7c0-2.6,1-4.9,3-6.7c2-1.9,4.4-2.8,7.2-2.8c2.8,0,5.2,0.9,7.2,2.8
			c2,1.9,2.9,4.1,2.9,6.7c0,2.6-1,4.9-2.9,6.7c-2,1.9-4.4,2.8-7.2,2.8C163.4,93.9,161,93,159.1,91.1z M170.8,88.9
			c1.3-1.2,1.9-2.7,1.9-4.5c0-1.8-0.6-3.3-1.9-4.5c-1.3-1.2-2.8-1.9-4.6-1.9c-1.8,0-3.4,0.6-4.6,1.9c-1.3,1.2-1.9,2.7-1.9,4.5
			c0,1.8,0.6,3.3,1.9,4.5c1.3,1.2,2.8,1.9,4.6,1.9C168,90.7,169.6,90.1,170.8,88.9z"/>
		<path class="st0" d="M180.7,75.2h2h4.5c2.6,0,4.7,0.5,6.1,1.5c1.4,1,2.2,2.4,2.2,4.2c0,2-0.7,3.5-2.2,4.6
			c-0.9,0.6-2.1,1.1-3.6,1.3l6,6.8h-2.4h-2.4l-6.1-7.3v7.3h-2.1h-2V75.2z M184.8,84h2.1c1.5,0,2.6-0.2,3.4-0.7
			c0.8-0.5,1.1-1.2,1.1-2.1c0-0.9-0.4-1.7-1.1-2.1c-0.8-0.5-1.9-0.7-3.4-0.7h-2.1V84z"/>
	</g>
</g>
</svg>
